<svg width="405" height="382" fill="none" xmlns="http://www.w3.org/2000/svg">
<path d="M401.07 334.08L230.64 17.58c-12.08-22.44-44.26-22.44-56.35 0L3.87 334.08A32.001 32.001 0 0032 381.25h340.89a31.99 31.99 0 0015.795-4.168 31.991 31.991 0 0016.201-27.118 31.992 31.992 0 00-3.816-15.884zm-198.6-1.83a20 20 0 01-19.616-23.902 20.004 20.004 0 0115.714-15.714 20 20 0 113.902 39.616zm21.72-201.15l-5.74 122c0 4.243-1.686 8.313-4.686 11.314a16.004 16.004 0 01-22.628 0 16.004 16.004 0 01-4.686-11.314l-5.74-121.95a21.724 21.724 0 015.935-15.907 21.743 21.743 0 0115.565-6.783h.21a21.723 21.723 0 018.544 1.745 21.727 21.727 0 0111.816 12.343 21.725 21.725 0 011.37 8.612l.04-.06z"/>
</svg>