<svg width="24" height="25" viewBox="0 0 24 25" fill="none" xmlns="http://www.w3.org/2000/svg">
<path d="M20.4799 0.124878H7.99995C6.41211 0.124878 5.11995 1.51294 5.11995 3.21863V6.31238H0.319946V21.2655C0.319946 23.2558 1.82715 24.8749 3.67995 24.8749H19.9999C21.8527 24.8749 23.3599 23.2558 23.3599 21.2655V3.21863C23.3599 1.51294 22.0678 0.124878 20.4799 0.124878ZM5.11995 21.2655C5.11995 22.1183 4.47387 22.8124 3.67995 22.8124C2.88603 22.8124 2.23995 22.1183 2.23995 21.2655V8.37488H5.11995V21.2655ZM21.4399 21.2655C21.4399 22.1183 20.7939 22.8124 19.9999 22.8124H6.71547C6.92283 22.3432 7.03995 21.8193 7.03995 21.2655V3.21863C7.03995 2.65041 7.47099 2.18738 7.99995 2.18738H20.4799C21.0089 2.18738 21.4399 2.65041 21.4399 3.21863V21.2655ZM14.7199 6.31238H19.5199V8.37488H14.7199V6.31238ZM8.95995 10.4374H19.5199V12.4999H8.95995V10.4374ZM8.95995 14.5624H19.5199V16.6249H8.95995V14.5624ZM8.95995 18.6874H19.5199V20.7499H8.95995V18.6874ZM12.7999 8.37488H8.95995V4.24988H12.7999V8.37488Z" fill="#EFAC00"/>
</svg>
