<svg width="14" height="16" viewBox="0 0 14 16" fill="none" xmlns="http://www.w3.org/2000/svg">
<path d="M1.5 16C1.0875 16 0.734375 15.8507 0.440625 15.5521C0.146875 15.2535 0 14.9028 0 14.5V3.5C0 3.09722 0.146875 2.74653 0.440625 2.44792C0.734375 2.14931 1.0875 2 1.5 2H3V0H4.5V2H9.5V0H11V2H12.5C12.9125 2 13.2656 2.14931 13.5594 2.44792C13.8531 2.74653 14 3.09722 14 3.5V14.5C14 14.9028 13.8531 15.2535 13.5594 15.5521C13.2656 15.8507 12.9125 16 12.5 16H1.5ZM1.5 14.5H12.5V7H1.5V14.5ZM1.5 5.5H12.5V3.5H1.5V5.5ZM7.0044 10C6.79313 10 6.61458 9.92855 6.46875 9.78565C6.32292 9.64273 6.25 9.46565 6.25 9.2544C6.25 9.04313 6.32145 8.86458 6.46435 8.71875C6.60727 8.57292 6.78435 8.5 6.9956 8.5C7.20687 8.5 7.38542 8.57145 7.53125 8.71435C7.67708 8.85727 7.75 9.03435 7.75 9.2456C7.75 9.45687 7.67855 9.63542 7.53565 9.78125C7.39273 9.92708 7.21565 10 7.0044 10ZM3.7544 10C3.54313 10 3.36458 9.92855 3.21875 9.78565C3.07292 9.64273 3 9.46565 3 9.2544C3 9.04313 3.07145 8.86458 3.21435 8.71875C3.35727 8.57292 3.53435 8.5 3.7456 8.5C3.95687 8.5 4.13542 8.57145 4.28125 8.71435C4.42708 8.85727 4.5 9.03435 4.5 9.2456C4.5 9.45687 4.42855 9.63542 4.28565 9.78125C4.14273 9.92708 3.96565 10 3.7544 10ZM10.2544 10C10.0431 10 9.86458 9.92855 9.71875 9.78565C9.57292 9.64273 9.5 9.46565 9.5 9.2544C9.5 9.04313 9.57145 8.86458 9.71435 8.71875C9.85727 8.57292 10.0344 8.5 10.2456 8.5C10.4569 8.5 10.6354 8.57145 10.7812 8.71435C10.9271 8.85727 11 9.03435 11 9.2456C11 9.45687 10.9285 9.63542 10.7856 9.78125C10.6427 9.92708 10.4656 10 10.2544 10ZM7.0044 13C6.79313 13 6.61458 12.9285 6.46875 12.7856C6.32292 12.6427 6.25 12.4656 6.25 12.2544C6.25 12.0431 6.32145 11.8646 6.46435 11.7188C6.60727 11.5729 6.78435 11.5 6.9956 11.5C7.20687 11.5 7.38542 11.5715 7.53125 11.7144C7.67708 11.8573 7.75 12.0344 7.75 12.2456C7.75 12.4569 7.67855 12.6354 7.53565 12.7812C7.39273 12.9271 7.21565 13 7.0044 13ZM3.7544 13C3.54313 13 3.36458 12.9285 3.21875 12.7856C3.07292 12.6427 3 12.4656 3 12.2544C3 12.0431 3.07145 11.8646 3.21435 11.7188C3.35727 11.5729 3.53435 11.5 3.7456 11.5C3.95687 11.5 4.13542 11.5715 4.28125 11.7144C4.42708 11.8573 4.5 12.0344 4.5 12.2456C4.5 12.4569 4.42855 12.6354 4.28565 12.7812C4.14273 12.9271 3.96565 13 3.7544 13ZM10.2544 13C10.0431 13 9.86458 12.9285 9.71875 12.7856C9.57292 12.6427 9.5 12.4656 9.5 12.2544C9.5 12.0431 9.57145 11.8646 9.71435 11.7188C9.85727 11.5729 10.0344 11.5 10.2456 11.5C10.4569 11.5 10.6354 11.5715 10.7812 11.7144C10.9271 11.8573 11 12.0344 11 12.2456C11 12.4569 10.9285 12.6354 10.7856 12.7812C10.6427 12.9271 10.4656 13 10.2544 13Z" fill="black"/>
</svg>
