<svg width="12" height="13" viewBox="0 0 12 13" fill="none" xmlns="http://www.w3.org/2000/svg">
<path d="M0.145991 1.35463C0.0995027 1.30814 0.0626266 1.25295 0.0374675 1.19221C0.0123084 1.13148 -0.000640869 1.06638 -0.000640869 1.00063C-0.00064087 0.934888 0.0123084 0.869788 0.0374675 0.809048C0.0626266 0.748309 0.0995027 0.693119 0.145991 0.646631C0.192479 0.600144 0.247668 0.563267 0.308407 0.538108C0.369147 0.512949 0.434247 0.5 0.499991 0.5C0.565735 0.5 0.630835 0.512949 0.691574 0.538108C0.752313 0.563267 0.807503 0.600144 0.853991 0.646631L5.99999 5.79363L11.146 0.646631C11.1925 0.600144 11.2477 0.563267 11.3084 0.538108C11.3691 0.512949 11.4342 0.5 11.5 0.5C11.5657 0.5 11.6308 0.512949 11.6916 0.538108C11.7523 0.563267 11.8075 0.600144 11.854 0.646631C11.9005 0.693119 11.9374 0.748309 11.9625 0.809048C11.9877 0.869788 12.0006 0.934888 12.0006 1.00063C12.0006 1.06638 11.9877 1.13148 11.9625 1.19221C11.9374 1.25295 11.9005 1.30814 11.854 1.35463L6.70699 6.50063L11.854 11.6466C11.9005 11.6931 11.9374 11.7483 11.9625 11.809C11.9877 11.8698 12.0006 11.9349 12.0006 12.0006C12.0006 12.0664 11.9877 12.1315 11.9625 12.1922C11.9374 12.253 11.9005 12.3081 11.854 12.3546C11.8075 12.4011 11.7523 12.438 11.6916 12.4632C11.6308 12.4883 11.5657 12.5013 11.5 12.5013C11.4342 12.5013 11.3691 12.4883 11.3084 12.4632C11.2477 12.438 11.1925 12.4011 11.146 12.3546L5.99999 7.20763L0.853991 12.3546C0.807503 12.4011 0.752313 12.438 0.691574 12.4632C0.630835 12.4883 0.565735 12.5013 0.499991 12.5013C0.434247 12.5013 0.369147 12.4883 0.308407 12.4632C0.247668 12.438 0.192479 12.4011 0.145991 12.3546C0.0995027 12.3081 0.0626266 12.253 0.0374675 12.1922C0.0123084 12.1315 -0.000640869 12.0664 -0.000640869 12.0006C-0.000640869 11.9349 0.0123084 11.8698 0.0374675 11.809C0.0626266 11.7483 0.0995027 11.6931 0.145991 11.6466L5.29299 6.50063L0.145991 1.35463Z" fill="#EFAC00"/>
</svg>
