<svg width="6" height="20" viewBox="0 0 6 20" fill="none" xmlns="http://www.w3.org/2000/svg">
<path d="M2.65215 5C4.08694 5 5.26085 3.875 5.26085 2.5C5.26085 1.125 4.08694 0 2.65215 0C1.21737 0 0.043457 1.125 0.043457 2.5C0.043457 3.875 1.21737 5 2.65215 5ZM2.65215 7.5C1.21737 7.5 0.043457 8.625 0.043457 10C0.043457 11.375 1.21737 12.5 2.65215 12.5C4.08694 12.5 5.26085 11.375 5.26085 10C5.26085 8.625 4.08694 7.5 2.65215 7.5ZM2.65215 15C1.21737 15 0.043457 16.125 0.043457 17.5C0.043457 18.875 1.21737 20 2.65215 20C4.08694 20 5.26085 18.875 5.26085 17.5C5.26085 16.125 4.08694 15 2.65215 15Z" fill="black"/>
</svg>
