<svg width="48" height="44" viewBox="0 0 48 44" fill="none" xmlns="http://www.w3.org/2000/svg">
<path d="M28.5 23C30.0856 23 31.4249 24.0543 31.8551 25.5002L34 25.5C34.5523 25.5 35 25.9477 35 26.5C35 27.0523 34.5523 27.5 34 27.5L31.8548 27.5008C31.4243 28.9462 30.0852 30 28.5 30C26.9148 30 25.5757 28.9462 25.1452 27.5008L14 27.5C13.4477 27.5 13 27.0523 13 26.5C13 25.9477 13.4477 25.5 14 25.5L25.1449 25.5002C25.5751 24.0543 26.9144 23 28.5 23ZM28.5 24.75C27.5335 24.75 26.75 25.5335 26.75 26.5C26.75 27.4665 27.5335 28.25 28.5 28.25C29.4665 28.25 30.25 27.4665 30.25 26.5C30.25 25.5335 29.4665 24.75 28.5 24.75ZM20.5 14C22.0856 14 23.4249 15.0543 23.8551 16.5002L34 16.5C34.5523 16.5 35 16.9477 35 17.5C35 18.0523 34.5523 18.5 34 18.5L23.8548 18.5008C23.4243 19.9462 22.0852 21 20.5 21C18.9148 21 17.5757 19.9462 17.1452 18.5008L14 18.5C13.4477 18.5 13 18.0523 13 17.5C13 16.9477 13.4477 16.5 14 16.5L17.1449 16.5002C17.5751 15.0543 18.9144 14 20.5 14ZM20.5 15.75C19.5335 15.75 18.75 16.5335 18.75 17.5C18.75 18.4665 19.5335 19.25 20.5 19.25C21.4665 19.25 22.25 18.4665 22.25 17.5C22.25 16.5335 21.4665 15.75 20.5 15.75Z" fill="#EFAC00"/>
<path d="M28.5 23C30.0856 23 31.4249 24.0543 31.8551 25.5002L34 25.5C34.5523 25.5 35 25.9477 35 26.5C35 27.0523 34.5523 27.5 34 27.5L31.8548 27.5008C31.4243 28.9462 30.0852 30 28.5 30C26.9148 30 25.5757 28.9462 25.1452 27.5008L14 27.5C13.4477 27.5 13 27.0523 13 26.5C13 25.9477 13.4477 25.5 14 25.5L25.1449 25.5002C25.5751 24.0543 26.9144 23 28.5 23ZM28.5 24.75C27.5335 24.75 26.75 25.5335 26.75 26.5C26.75 27.4665 27.5335 28.25 28.5 28.25C29.4665 28.25 30.25 27.4665 30.25 26.5C30.25 25.5335 29.4665 24.75 28.5 24.75ZM20.5 14C22.0856 14 23.4249 15.0543 23.8551 16.5002L34 16.5C34.5523 16.5 35 16.9477 35 17.5C35 18.0523 34.5523 18.5 34 18.5L23.8548 18.5008C23.4243 19.9462 22.0852 21 20.5 21C18.9148 21 17.5757 19.9462 17.1452 18.5008L14 18.5C13.4477 18.5 13 18.0523 13 17.5C13 16.9477 13.4477 16.5 14 16.5L17.1449 16.5002C17.5751 15.0543 18.9144 14 20.5 14ZM20.5 15.75C19.5335 15.75 18.75 16.5335 18.75 17.5C18.75 18.4665 19.5335 19.25 20.5 19.25C21.4665 19.25 22.25 18.4665 22.25 17.5C22.25 16.5335 21.4665 15.75 20.5 15.75Z" fill="#EFAC00"/>
<path d="M28.5 23C30.0856 23 31.4249 24.0543 31.8551 25.5002L34 25.5C34.5523 25.5 35 25.9477 35 26.5C35 27.0523 34.5523 27.5 34 27.5L31.8548 27.5008C31.4243 28.9462 30.0852 30 28.5 30C26.9148 30 25.5757 28.9462 25.1452 27.5008L14 27.5C13.4477 27.5 13 27.0523 13 26.5C13 25.9477 13.4477 25.5 14 25.5L25.1449 25.5002C25.5751 24.0543 26.9144 23 28.5 23ZM28.5 24.75C27.5335 24.75 26.75 25.5335 26.75 26.5C26.75 27.4665 27.5335 28.25 28.5 28.25C29.4665 28.25 30.25 27.4665 30.25 26.5C30.25 25.5335 29.4665 24.75 28.5 24.75ZM20.5 14C22.0856 14 23.4249 15.0543 23.8551 16.5002L34 16.5C34.5523 16.5 35 16.9477 35 17.5C35 18.0523 34.5523 18.5 34 18.5L23.8548 18.5008C23.4243 19.9462 22.0852 21 20.5 21C18.9148 21 17.5757 19.9462 17.1452 18.5008L14 18.5C13.4477 18.5 13 18.0523 13 17.5C13 16.9477 13.4477 16.5 14 16.5L17.1449 16.5002C17.5751 15.0543 18.9144 14 20.5 14ZM20.5 15.75C19.5335 15.75 18.75 16.5335 18.75 17.5C18.75 18.4665 19.5335 19.25 20.5 19.25C21.4665 19.25 22.25 18.4665 22.25 17.5C22.25 16.5335 21.4665 15.75 20.5 15.75Z" fill="#EFAC00"/>
</svg>
