<svg width="22" height="16" viewBox="0 0 22 16" fill="none" xmlns="http://www.w3.org/2000/svg">
<path d="M15.5 9C17.0856 9 18.4249 10.0543 18.8551 11.5002L21 11.5C21.5523 11.5 22 11.9477 22 12.5C22 13.0523 21.5523 13.5 21 13.5L18.8548 13.5008C18.4243 14.9462 17.0852 16 15.5 16C13.9148 16 12.5757 14.9462 12.1452 13.5008L1 13.5C0.447715 13.5 0 13.0523 0 12.5C0 11.9477 0.447715 11.5 1 11.5L12.1449 11.5002C12.5751 10.0543 13.9144 9 15.5 9ZM15.5 10.75C14.5335 10.75 13.75 11.5335 13.75 12.5C13.75 13.4665 14.5335 14.25 15.5 14.25C16.4665 14.25 17.25 13.4665 17.25 12.5C17.25 11.5335 16.4665 10.75 15.5 10.75ZM7.5 0C9.08557 0 10.4249 1.05433 10.8551 2.50016L21 2.5C21.5523 2.5 22 2.94772 22 3.5C22 4.05228 21.5523 4.5 21 4.5L10.8548 4.50084C10.4243 5.94615 9.0852 7 7.5 7C5.9148 7 4.57573 5.94615 4.14519 4.50084L1 4.5C0.447715 4.5 0 4.05228 0 3.5C0 2.94772 0.447715 2.5 1 2.5L4.14489 2.50016C4.57511 1.05433 5.91443 0 7.5 0ZM7.5 1.75C6.5335 1.75 5.75 2.5335 5.75 3.5C5.75 4.4665 6.5335 5.25 7.5 5.25C8.4665 5.25 9.25 4.4665 9.25 3.5C9.25 2.5335 8.4665 1.75 7.5 1.75Z" fill="black"/>
</svg>
