<svg width="22" height="22" viewBox="0 0 22 22" fill="none" xmlns="http://www.w3.org/2000/svg">
<path d="M15.3808 13.6308H14.4592L14.1325 13.3158C15.2758 11.9858 15.9642 10.2592 15.9642 8.38083C15.9642 4.1925 12.5692 0.797501 8.38083 0.797501C4.1925 0.797501 0.797501 4.1925 0.797501 8.38083C0.797501 12.5692 4.1925 15.9642 8.38083 15.9642C10.2592 15.9642 11.9858 15.2758 13.3158 14.1325L13.6308 14.4592V15.3808L19.4642 21.2025L21.2025 19.4642L15.3808 13.6308ZM8.38083 13.6308C5.47583 13.6308 3.13083 11.2858 3.13083 8.38083C3.13083 5.47583 5.47583 3.13083 8.38083 3.13083C11.2858 3.13083 13.6308 5.47583 13.6308 8.38083C13.6308 11.2858 11.2858 13.6308 8.38083 13.6308Z" fill="#E8E8E8"/>
</svg>
