<svg width="25" height="25" viewBox="0 0 25 25" fill="none" xmlns="http://www.w3.org/2000/svg">
<path d="M21.875 0H8.33333C6.61042 0 5.20833 1.40208 5.20833 3.125V6.25H0V21.3542C0 23.3646 1.63542 25 3.64583 25H21.3542C23.3646 25 25 23.3646 25 21.3542V3.125C25 1.40208 23.5979 0 21.875 0ZM5.20833 21.3542C5.20833 22.2156 4.50729 22.9167 3.64583 22.9167C2.78437 22.9167 2.08333 22.2156 2.08333 21.3542V8.33333H5.20833V21.3542ZM22.9167 21.3542C22.9167 22.2156 22.2156 22.9167 21.3542 22.9167H6.93958C7.16458 22.4427 7.29167 21.9135 7.29167 21.3542V3.125C7.29167 2.55104 7.75937 2.08333 8.33333 2.08333H21.875C22.449 2.08333 22.9167 2.55104 22.9167 3.125V21.3542ZM15.625 6.25H20.8333V8.33333H15.625V6.25ZM9.375 10.4167H20.8333V12.5H9.375V10.4167ZM9.375 14.5833H20.8333V16.6667H9.375V14.5833ZM9.375 18.75H20.8333V20.8333H9.375V18.75ZM13.5417 8.33333H9.375V4.16667H13.5417V8.33333Z" fill="#828282"/>
</svg>
