<svg width="25" height="24" viewBox="0 0 25 24" fill="none" xmlns="http://www.w3.org/2000/svg">
<g clip-path="url(#clip0_274_1053)">
<path d="M5.18018 19.1733V21.6733H3.68018C3.41496 21.6733 3.16061 21.568 2.97307 21.3804C2.78553 21.1929 2.68018 20.9386 2.68018 20.6733V19.1733H5.18018ZM7.18018 17.1733H0.680176V20.6733C0.680176 21.469 0.996246 22.2321 1.55886 22.7947C2.12146 23.3573 2.88453 23.6733 3.68018 23.6733H7.18018V17.1733Z" fill="#828282"/>
<path d="M22.5281 19.1733V20.6733C22.5281 20.9386 22.4227 21.1929 22.2352 21.3804C22.0476 21.568 21.7933 21.6733 21.5281 21.6733H20.0281V19.1733H22.5281ZM24.5281 17.1733H18.0281V23.6733H21.5281C22.3237 23.6733 23.0868 23.3573 23.6494 22.7947C24.212 22.2321 24.5281 21.469 24.5281 20.6733V17.1733Z" fill="#828282"/>
<path d="M5.18018 10.5869V13.0869H2.68018V10.5869H5.18018ZM7.18018 8.58691H0.680176V15.0869H7.18018V8.58691Z" fill="#828282"/>
<path d="M22.5281 10.5869V13.0869H20.0281V10.5869H22.5281ZM24.5281 8.58691H18.0281V15.0869H24.5281V8.58691Z" fill="#828282"/>
<path d="M5.18018 2V4.5H2.68018V3C2.68018 2.73478 2.78553 2.48043 2.97307 2.29289C3.16061 2.10536 3.41496 2 3.68018 2H5.18018ZM7.18018 0H3.68018C2.88453 0 2.12146 0.316071 1.55886 0.87868C0.996246 1.44129 0.680176 2.20435 0.680176 3L0.680176 6.5H7.18018V0Z" fill="#828282"/>
<path d="M13.854 19.1733V21.6733H11.354V19.1733H13.854ZM15.854 17.1733H9.354V23.6733H15.854V17.1733Z" fill="#828282"/>
<path d="M13.854 10.5869V13.0869H11.354V10.5869H13.854ZM15.854 8.58691H9.354V15.0869H15.854V8.58691Z" fill="#828282"/>
<path d="M13.854 2V4.5H11.354V2H13.854ZM15.854 0H9.354V6.5H15.854V0Z" fill="#828282"/>
<path d="M21.5281 2C21.7933 2 22.0476 2.10536 22.2352 2.29289C22.4227 2.48043 22.5281 2.73478 22.5281 3V4.5H20.0281V2H21.5281ZM21.5281 0H18.0281V6.5H24.5281V3C24.5281 2.20435 24.212 1.44129 23.6494 0.87868C23.0868 0.316071 22.3237 0 21.5281 0Z" fill="#828282"/>
</g>
<defs>
<clipPath id="clip0_274_1053">
<rect width="24" height="24" fill="white" transform="translate(0.680176)"/>
</clipPath>
</defs>
</svg>
